<svg width="1920" height="1291" viewBox="0 0 1920 1291" fill="none" xmlns="http://www.w3.org/2000/svg">
<g clip-path="url(#clip0_341_453)">
<rect width="1920" height="2446" transform="translate(0 -567)" fill="#FBFBFB"/>
<path d="M1785.69 0.677612C1790.17 0.677612 1793.79 -0.575978 1793.79 -2.12238C1793.79 -3.66877 1790.17 -4.92236 1785.69 -4.92236C1781.22 -4.92236 1777.59 -3.66877 1777.59 -2.12238C1777.59 -0.575978 1781.22 0.677612 1785.69 0.677612Z" fill="#D1DAEB"/>
<path d="M1445.19 0.677612C1449.67 0.677612 1453.29 -0.575978 1453.29 -2.12238C1453.29 -3.66877 1449.67 -4.92236 1445.19 -4.92236C1440.72 -4.92236 1437.09 -3.66877 1437.09 -2.12238C1437.09 -0.575978 1440.72 0.677612 1445.19 0.677612Z" fill="#D1DAEB"/>
<circle cx="-20.5" cy="1049.5" r="170.5" fill="#EBF6FF"/>
<circle cx="150.5" cy="131.5" r="70.5" fill="#EBF6FF"/>
<circle cx="9.5" cy="484.5" r="48.5" fill="#EBF6FF"/>
<circle cx="1846.5" cy="965.5" r="48.5" fill="#EBF6FF"/>
<circle cx="1851.5" cy="289.5" r="133.5" fill="#EBF6FF"/>
<circle cx="1679.5" cy="1293.5" r="22.5" fill="#EBF6FF"/>
<path d="M1784.41 231.599C1784.63 231.415 1784.92 231.354 1785.19 231.439L1807.75 238.557C1808.16 238.688 1808.27 239.1 1808.12 239.5C1807.98 239.9 1807.65 240.137 1807.24 240.007L1789.18 234.308L1812.2 249.157L1821.05 244.367L1807.24 240.007C1806.82 239.876 1806.6 239.446 1806.75 239.046C1806.89 238.646 1807.34 238.427 1807.75 238.557L1823.27 243.453C1823.56 243.547 1823.77 243.801 1823.8 244.102C1823.82 244.402 1823.66 244.692 1823.39 244.841L1812.82 250.561L1809.7 260.314C1809.69 260.324 1809.69 260.333 1809.69 260.341C1809.63 260.492 1809.53 260.627 1809.39 260.722C1809.3 260.782 1809.2 260.823 1809.1 260.845C1808.9 260.887 1808.69 260.856 1808.51 260.749L1801.65 256.606L1791.56 262.064C1791.49 262.101 1791.42 262.128 1791.34 262.145C1791.17 262.18 1791 262.164 1790.85 262.097C1790.62 261.999 1790.46 261.802 1790.4 261.566L1784.16 232.329C1784.1 232.062 1784.2 231.783 1784.41 231.599ZM1807.9 252.091C1808.01 252.197 1808.09 252.334 1808.12 252.485L1809.1 257.036L1811.23 250.376L1792.99 238.619L1807.9 252.091ZM1807.79 258.499L1806.79 253.822L1803.23 255.749L1807.79 258.499ZM1791.74 260.229L1806.02 252.503L1786.28 234.654L1791.74 260.229Z" fill="#90CCEC"/>
<path d="M-6.58821 465.599C-6.37469 465.415 -6.07682 465.354 -5.80821 465.439L16.7506 472.557C17.1638 472.688 17.2663 473.1 17.1239 473.5C16.9816 473.9 16.6483 474.137 16.235 474.007L-1.8235 468.308L21.2018 483.157L30.053 478.367L16.235 474.007C15.8218 473.876 15.6022 473.446 15.7446 473.046C15.8869 472.646 16.3373 472.427 16.7506 472.557L32.2648 477.453C32.5612 477.547 32.7695 477.801 32.7956 478.102C32.8218 478.402 32.6611 478.692 32.3858 478.841L21.8152 484.561L18.6962 494.314C18.6929 494.324 18.6892 494.333 18.6851 494.341C18.6305 494.492 18.5292 494.627 18.3874 494.722C18.2986 494.782 18.2006 494.823 18.0992 494.845C17.9005 494.887 17.6892 494.856 17.5119 494.749L10.6447 490.606L0.558366 496.064C0.488596 496.101 0.414536 496.128 0.338559 496.145C0.174511 496.18 0.00180085 496.164 -0.153737 496.097C-0.381326 495.999 -0.545334 495.802 -0.595712 495.566L-6.8413 466.329C-6.89837 466.062 -6.80175 465.783 -6.58821 465.599ZM16.8955 486.091C17.0118 486.197 17.0915 486.334 17.1239 486.485L18.096 491.036L20.2259 484.376L1.99404 472.619L16.8955 486.091ZM16.7872 492.499L15.7882 487.822L12.2283 489.749L16.7872 492.499ZM0.740022 494.229L15.0187 486.503L-4.72334 468.654L0.740022 494.229Z" fill="#90CCEC"/>
<path d="M51.4118 1038.6C51.6253 1038.42 51.9232 1038.35 52.1918 1038.44L74.7506 1045.56C75.1638 1045.69 75.2663 1046.1 75.1239 1046.5C74.9816 1046.9 74.6483 1047.14 74.235 1047.01L56.1765 1041.31L79.2018 1056.16L88.053 1051.37L74.235 1047.01C73.8218 1046.88 73.6022 1046.45 73.7446 1046.05C73.8869 1045.65 74.3373 1045.43 74.7506 1045.56L90.2648 1050.45C90.5612 1050.55 90.7695 1050.8 90.7956 1051.1C90.8218 1051.4 90.6611 1051.69 90.3858 1051.84L79.8152 1057.56L76.6962 1067.31C76.6929 1067.32 76.6892 1067.33 76.6851 1067.34C76.6305 1067.49 76.5292 1067.63 76.3874 1067.72C76.2986 1067.78 76.2006 1067.82 76.0992 1067.85C75.9005 1067.89 75.6892 1067.86 75.5119 1067.75L68.6447 1063.61L58.5584 1069.06C58.4886 1069.1 58.4145 1069.13 58.3386 1069.14C58.1745 1069.18 58.0018 1069.16 57.8463 1069.1C57.6187 1069 57.4547 1068.8 57.4043 1068.57L51.1587 1039.33C51.1016 1039.06 51.1983 1038.78 51.4118 1038.6ZM74.8955 1059.09C75.0118 1059.2 75.0915 1059.33 75.1239 1059.49L76.096 1064.04L78.2259 1057.38L59.994 1045.62L74.8955 1059.09ZM74.7872 1065.5L73.7882 1060.82L70.2283 1062.75L74.7872 1065.5ZM58.74 1067.23L73.0187 1059.5L53.2767 1041.65L58.74 1067.23Z" fill="#90CCEC"/>
<path d="M173.949 166.056C174.085 165.82 174.084 165.529 173.946 165.294L162.351 145.555C162.139 145.193 161.715 145.178 161.352 145.39C160.99 145.601 160.826 145.96 161.038 146.322L170.32 162.123L151.064 143.462L153.936 134.231L161.038 146.322C161.251 146.683 161.717 146.805 162.079 146.593C162.442 146.381 162.564 145.916 162.351 145.555L154.377 131.979C154.225 131.72 153.933 131.575 153.634 131.609C153.334 131.643 153.083 131.851 152.994 132.138L149.564 143.162L140.658 147.996C140.649 148.001 140.641 148.007 140.634 148.012C140.498 148.093 140.386 148.214 140.322 148.366C140.281 148.461 140.261 148.56 140.261 148.66C140.26 148.854 140.334 149.046 140.476 149.191L145.939 154.813L142.666 165.332C142.644 165.405 142.632 165.48 142.632 165.554C142.632 165.715 142.682 165.873 142.78 166.006C142.922 166.2 143.149 166.315 143.39 166.316L173.287 166.437C173.56 166.438 173.813 166.293 173.949 166.056ZM149.075 148.072C148.949 147.983 148.798 147.936 148.643 147.935L143.989 147.916L150.071 144.615L165.318 159.392L149.075 148.072ZM142.826 149.429L147.608 149.448L146.453 153.161L142.826 149.429ZM144.424 164.803L149.058 149.911L170.577 164.908L144.424 164.803Z" fill="#90CCEC"/>
<path d="M1833.48 986.905C1833.26 986.726 1833.15 986.443 1833.19 986.164L1836.35 962.721C1836.41 962.291 1836.58 961.928 1837 962C1837.42 962.072 1837.92 962.552 1837.87 962.981L1835.34 981.748L1846.03 956.525L1839.8 948.622L1837.87 962.981C1837.81 963.411 1837.42 962.072 1837 962C1836.58 961.928 1836.29 963.15 1836.35 962.721L1838.53 946.599C1838.57 946.291 1838.78 946.042 1839.07 945.965C1839.37 945.888 1839.68 945.997 1839.87 946.242L1847.31 955.681L1857.46 957.089C1857.47 957.091 1857.48 957.093 1857.48 957.096C1857.64 957.124 1857.79 957.2 1857.91 957.324C1857.99 957.401 1858.04 957.491 1858.08 957.587C1858.16 957.775 1858.16 957.989 1858.09 958.182L1855.18 965.656L1862.28 974.662C1862.33 974.724 1862.36 974.793 1862.39 974.865C1862.46 975.021 1862.47 975.193 1862.43 975.358C1862.37 975.599 1862.21 975.794 1861.98 975.884L1834.24 987.03C1833.99 987.132 1833.7 987.084 1833.48 986.905ZM1849.66 960.267C1849.75 960.135 1849.87 960.033 1850.01 959.975L1854.33 958.24L1847.4 957.279L1838.93 977.25L1849.66 960.267ZM1855.99 959.28L1851.56 961.063L1854.06 964.242L1855.99 959.28ZM1860.44 974.796L1850.39 962.046L1836.17 984.546L1860.44 974.796Z" fill="#90CCEC"/>
</g>
<defs>
<clipPath id="clip0_341_453">
<rect width="1920" height="2446" fill="white" transform="translate(0 -567)"/>
</clipPath>
</defs>
</svg>
