<svg width="1920" height="474" viewBox="0 0 1920 474" fill="none" xmlns="http://www.w3.org/2000/svg">
<rect width="1920" height="473" fill="white"/>
<path d="M179.08 43.0081C302.224 46.7845 347.67 15.9095 355 0L-1 0L-1 257C34.6594 242.314 46.8866 215.464 49.5175 204.027C65.5643 134.269 55.9362 39.2318 179.08 43.0081Z" fill="#2D6AFB" fill-opacity="0.3"/>
<path d="M1619.89 61.7776C1597.39 68.1776 1576.19 79.3776 1558.09 94.1776C1542.49 106.978 1529.09 122.778 1521.09 141.278C1515.69 153.878 1512.79 167.378 1510.59 180.978C1505.59 211.378 1503.39 242.978 1511.99 272.578C1523.99 313.878 1556.89 347.578 1596.39 364.578C1635.89 381.578 1681.09 382.578 1722.69 371.878C1745.49 365.978 1767.89 356.378 1785.39 340.578C1810.19 318.178 1824.29 284.478 1852.39 266.478C1875.99 251.378 1905.99 249.678 1929.99 235.378C1958.29 218.478 1974.69 184.778 1974.19 151.678C1973.59 118.578 1957.39 86.8776 1933.49 64.1776C1909.59 41.3776 1878.49 27.1776 1846.29 19.8776C1805.79 10.6776 1762.99 12.3776 1723.29 24.2776C1706.79 29.2776 1695.09 38.7776 1679.79 45.6776C1660.59 53.9776 1639.59 56.1776 1619.89 61.7776Z" fill="#EBF6FF"/>
<path d="M1609.89 182.478H1521.29C1519.49 182.478 1517.99 180.978 1517.99 179.178C1517.99 177.378 1519.49 175.878 1521.29 175.878H1609.89C1611.69 175.878 1613.19 177.378 1613.19 179.178C1613.19 180.978 1611.69 182.478 1609.89 182.478Z" fill="#CFDAEE"/>
<path d="M1544.99 131.978H1534.59V175.478H1544.99V131.978Z" fill="url(#paint0_linear_341_460)"/>
<path d="M1544.89 168.778H1534.59V172.278H1544.89V168.778Z" fill="#F7E4DD"/>
<path d="M1542.79 138.378H1536.59V140.478H1542.79V138.378Z" fill="#F7E4DD"/>
<path d="M1569.29 131.978H1558.89V175.478H1569.29V131.978Z" fill="url(#paint1_linear_341_460)"/>
<path d="M1569.19 168.778H1558.89V172.278H1569.19V168.778Z" fill="#FCF8E3"/>
<path d="M1567.09 138.378H1560.89V140.478H1567.09V138.378Z" fill="#FCF8E3"/>
<path d="M1556.89 131.978H1546.49V175.478H1556.89V131.978Z" fill="url(#paint2_linear_341_460)"/>
<path d="M1553.99 138.178H1549.39V165.378H1553.99V138.178Z" fill="#EAEFF8"/>
<path d="M1581.59 131.978H1571.19V175.478H1581.59V131.978Z" fill="url(#paint3_linear_341_460)"/>
<path d="M1579.39 138.378H1573.19V140.478H1579.39V138.378Z" fill="#F7E4DD"/>
<path d="M1579.39 169.378H1573.19V172.278H1579.39V169.378Z" fill="#F7E4DD"/>
<path d="M1593.49 131.978H1583.09V175.478H1593.49V131.978Z" fill="url(#paint4_linear_341_460)"/>
<path d="M1590.59 140.778H1585.99V167.978H1590.59V140.778Z" fill="#EAEFF8"/>
<path d="M1611.79 77.6776H1548.69C1544.29 77.6776 1540.69 81.2776 1540.69 85.6776V110.178C1540.69 114.578 1544.29 118.178 1548.69 118.178H1590.49L1606.09 140.478L1601.99 118.178H1611.89C1616.29 118.178 1619.89 114.578 1619.89 110.178V85.6776C1619.79 81.2776 1616.19 77.6776 1611.79 77.6776Z" fill="url(#paint5_linear_341_460)"/>
<path d="M1549.99 110.378H1593.79C1595.19 110.378 1596.19 109.278 1596.19 107.978C1596.19 106.578 1595.09 105.578 1593.79 105.578H1549.99C1548.59 105.578 1547.59 106.678 1547.59 107.978C1547.49 109.278 1548.59 110.378 1549.99 110.378Z" fill="#D6DFF1"/>
<path d="M1549.99 99.8776H1608.79C1610.19 99.8776 1611.19 98.7776 1611.19 97.4776C1611.19 96.0776 1610.09 95.0776 1608.79 95.0776H1549.99C1548.59 95.0776 1547.59 96.1776 1547.59 97.4776C1547.49 98.7776 1548.59 99.8776 1549.99 99.8776Z" fill="#D6DFF1"/>
<path d="M1549.99 89.3776H1608.79C1610.19 89.3776 1611.19 88.2776 1611.19 86.9776C1611.19 85.5776 1610.09 84.5776 1608.79 84.5776H1549.99C1548.59 84.5776 1547.59 85.6776 1547.59 86.9776C1547.49 88.2776 1548.59 89.3776 1549.99 89.3776Z" fill="#D6DFF1"/>
<path d="M1608.69 110.478C1610.18 110.478 1611.39 109.269 1611.39 107.778C1611.39 106.286 1610.18 105.078 1608.69 105.078C1607.2 105.078 1605.99 106.286 1605.99 107.778C1605.99 109.269 1607.2 110.478 1608.69 110.478Z" fill="#D6DFF1"/>
<path d="M1707.89 113.278C1724.02 113.278 1737.09 100.16 1737.09 83.9776C1737.09 67.7957 1724.02 54.6776 1707.89 54.6776C1691.77 54.6776 1678.69 67.7957 1678.69 83.9776C1678.69 100.16 1691.77 113.278 1707.89 113.278Z" fill="url(#paint6_linear_341_460)"/>
<path d="M1707.89 105.878C1719.93 105.878 1729.69 96.0726 1729.69 83.9776C1729.69 71.8826 1719.93 62.0776 1707.89 62.0776C1695.85 62.0776 1686.09 71.8826 1686.09 83.9776C1686.09 96.0726 1695.85 105.878 1707.89 105.878Z" fill="white"/>
<path d="M1714.79 71.6776C1715.79 72.2776 1716.99 71.8776 1717.49 70.8776C1718.09 69.8776 1717.69 68.6776 1716.69 68.1776C1715.69 67.5776 1714.49 67.9776 1713.99 68.9776C1713.59 69.6776 1713.69 70.3776 1713.99 70.9776C1714.29 71.2776 1714.49 71.4776 1714.79 71.6776Z" fill="#D6DFF1"/>
<path d="M1720.19 77.4776C1721.19 78.0776 1722.39 77.6776 1722.89 76.6776C1723.49 75.6776 1723.09 74.4776 1722.09 73.9776C1721.09 73.3776 1719.89 73.7776 1719.39 74.7776C1718.99 75.4776 1719.09 76.1776 1719.39 76.7776C1719.59 76.9776 1719.89 77.2776 1720.19 77.4776Z" fill="#D6DFF1"/>
<path d="M1707.79 69.8776C1708.89 69.8776 1709.79 68.9776 1709.79 67.8776C1709.79 66.7776 1708.89 65.8776 1707.79 65.8776C1706.69 65.8776 1705.79 66.7776 1705.79 67.8776C1705.79 68.2776 1705.89 68.5776 1706.09 68.8776C1706.39 69.4776 1707.09 69.8776 1707.79 69.8776Z" fill="#D6DFF1"/>
<path d="M1708.09 98.0776C1706.99 98.0776 1706.09 98.9776 1706.09 100.078C1706.09 100.478 1706.19 100.778 1706.39 101.078C1706.69 101.678 1707.39 102.078 1708.09 102.078C1709.19 102.078 1710.09 101.178 1710.09 100.078C1710.09 98.9776 1709.19 98.0776 1708.09 98.0776Z" fill="#D6DFF1"/>
<path d="M1715.09 96.0776C1714.19 96.6776 1713.79 97.8776 1714.39 98.7776C1714.99 99.7776 1716.19 100.078 1717.09 99.4776C1717.99 98.8776 1718.39 97.6776 1717.79 96.7776C1717.19 95.8776 1715.99 95.5776 1715.09 96.0776Z" fill="#D6DFF1"/>
<path d="M1722.89 90.1776C1721.89 89.6776 1720.69 89.9776 1720.19 90.9776C1719.79 91.6776 1719.89 92.3776 1720.19 92.9776C1720.39 93.2776 1720.59 93.5776 1720.89 93.6776C1721.89 94.2776 1723.09 93.8776 1723.59 92.8776C1724.19 91.9776 1723.89 90.6776 1722.89 90.1776Z" fill="#D6DFF1"/>
<path d="M1693.79 84.1776C1693.79 83.0776 1692.89 82.1776 1691.79 82.1776C1690.69 82.1776 1689.79 83.0776 1689.79 84.1776C1689.79 84.5776 1689.89 84.8776 1690.09 85.1776C1690.39 85.7776 1691.09 86.1776 1691.79 86.1776C1692.99 86.1776 1693.89 85.2776 1693.79 84.1776Z" fill="#D6DFF1"/>
<path d="M1693.09 90.4776C1692.19 91.0776 1691.79 92.2776 1692.39 93.1776C1692.99 94.0776 1694.19 94.4776 1695.09 93.8776C1695.99 93.2776 1696.29 92.0776 1695.79 91.0776C1695.19 90.1776 1693.99 89.8776 1693.09 90.4776Z" fill="#D6DFF1"/>
<path d="M1721.99 83.8776C1721.99 84.2776 1722.09 84.5776 1722.29 84.8776C1722.59 85.4776 1723.29 85.8776 1723.99 85.8776C1725.09 85.8776 1725.99 84.9776 1725.99 83.8776C1725.99 82.7776 1725.09 81.8776 1723.99 81.8776C1722.89 81.8776 1721.99 82.7776 1721.99 83.8776Z" fill="#D6DFF1"/>
<path d="M1692.89 77.7776C1693.89 78.3776 1695.09 77.9776 1695.59 76.9776C1696.09 75.9776 1695.79 74.7776 1694.79 74.2776C1693.79 73.7776 1692.59 74.0776 1692.09 75.0776C1691.79 75.6776 1691.79 76.4776 1692.09 77.0776C1692.39 77.3776 1692.59 77.6776 1692.89 77.7776Z" fill="#D6DFF1"/>
<path d="M1700.69 71.8776C1700.69 71.8776 1700.79 71.8776 1700.69 71.8776C1700.79 71.8776 1700.79 71.8776 1700.69 71.8776C1700.79 71.7776 1700.79 71.7776 1700.69 71.8776C1701.69 71.2776 1701.99 70.0776 1701.49 69.0776C1700.89 68.0776 1699.69 67.7776 1698.79 68.3776C1697.89 68.9776 1697.49 70.1776 1698.09 71.0776C1698.59 72.0776 1699.79 72.3776 1700.69 71.8776Z" fill="#D6DFF1"/>
<path d="M1700.99 96.2776C1699.99 95.6776 1698.79 96.0776 1698.29 97.0776C1697.89 97.7776 1697.99 98.4776 1698.29 99.0776C1698.49 99.3776 1698.69 99.6776 1698.99 99.7776C1699.99 100.278 1701.19 99.9776 1701.69 98.9776C1702.29 97.9776 1701.99 96.7776 1700.99 96.2776Z" fill="#D6DFF1"/>
<path d="M1707.79 66.0776L1707.89 84.8776L1718.49 77.6776" stroke="#7492C9" stroke-width="0.9392" stroke-miterlimit="10"/>
<path d="M1627.29 191.978C1638.89 187.678 1641.99 189.378 1643.39 185.478C1643.39 185.378 1643.49 185.378 1643.49 185.278C1643.59 184.978 1643.69 184.778 1643.69 184.478L1644.49 179.578C1645.79 173.778 1647.49 158.778 1647.49 158.778L1655.69 161.678L1667.49 151.778C1667.49 151.778 1669.79 178.178 1670.59 183.278C1670.69 183.678 1670.79 183.978 1670.89 184.378C1670.89 184.478 1670.99 184.578 1670.99 184.578C1671.19 184.878 1671.29 185.178 1671.49 185.478C1673.89 188.678 1679.99 190.878 1687.29 193.978C1685.19 197.978 1683.89 202.178 1683.09 206.778C1682.29 210.878 1681.29 214.978 1680.69 219.178C1670.79 213.078 1658.49 215.178 1647.99 215.078C1639.39 214.978 1631.49 215.978 1626.79 216.678C1626.69 208.378 1626.19 200.178 1627.29 191.978Z" fill="url(#paint7_linear_341_460)"/>
<path opacity="0.3" d="M1652.99 174.078C1650.29 174.578 1647.79 175.078 1645.49 174.278C1646.89 165.478 1649.59 153.678 1649.59 153.678L1667.69 154.678C1666.89 164.678 1660.99 172.578 1652.99 174.078Z" fill="url(#paint8_linear_341_460)"/>
<path d="M1676.79 189.478C1672.79 194.078 1663.89 197.378 1653.59 197.378C1643.69 197.378 1635.19 194.378 1630.99 190.078C1629.59 190.478 1628.09 190.978 1626.29 191.678C1625.19 199.878 1642.49 245.778 1642.69 254.078C1647.49 253.378 1656.09 275.478 1656.09 275.478C1656.09 275.478 1673.09 234.478 1679.69 218.878C1680.29 214.678 1681.39 210.578 1682.09 206.478C1682.89 201.878 1684.19 197.678 1686.29 193.678C1682.79 192.078 1679.49 190.778 1676.79 189.478Z" fill="#EEBF3B"/>
<path d="M1668.89 213.278C1669.83 213.278 1670.59 212.516 1670.59 211.578C1670.59 210.639 1669.83 209.878 1668.89 209.878C1667.95 209.878 1667.19 210.639 1667.19 211.578C1667.19 212.516 1667.95 213.278 1668.89 213.278Z" fill="#F8ECD6"/>
<path d="M1656.89 205.578C1657.83 205.578 1658.59 204.816 1658.59 203.878C1658.59 202.939 1657.83 202.178 1656.89 202.178C1655.95 202.178 1655.19 202.939 1655.19 203.878C1655.19 204.816 1655.95 205.578 1656.89 205.578Z" fill="#F8ECD6"/>
<path d="M1653.69 219.678C1654.63 219.678 1655.39 218.916 1655.39 217.978C1655.39 217.039 1654.63 216.278 1653.69 216.278C1652.75 216.278 1651.99 217.039 1651.99 217.978C1651.99 218.916 1652.75 219.678 1653.69 219.678Z" fill="#F8ECD6"/>
<path d="M1648.19 231.578C1649.13 231.578 1649.89 230.816 1649.89 229.878C1649.89 228.939 1649.13 228.178 1648.19 228.178C1647.25 228.178 1646.49 228.939 1646.49 229.878C1646.49 230.816 1647.25 231.578 1648.19 231.578Z" fill="#F8ECD6"/>
<path d="M1657.29 255.478C1658.23 255.478 1658.99 254.717 1658.99 253.778C1658.99 252.839 1658.23 252.078 1657.29 252.078C1656.35 252.078 1655.59 252.839 1655.59 253.778C1655.59 254.717 1656.35 255.478 1657.29 255.478Z" fill="#F8ECD6"/>
<path d="M1641.49 211.778C1642.43 211.778 1643.19 211.016 1643.19 210.078C1643.19 209.139 1642.43 208.378 1641.49 208.378C1640.55 208.378 1639.79 209.139 1639.79 210.078C1639.79 211.016 1640.55 211.778 1641.49 211.778Z" fill="#F8ECD6"/>
<path d="M1659.59 234.678C1660.53 234.678 1661.29 233.916 1661.29 232.978C1661.29 232.039 1660.53 231.278 1659.59 231.278C1658.65 231.278 1657.89 232.039 1657.89 232.978C1657.89 233.916 1658.65 234.678 1659.59 234.678Z" fill="#F8ECD6"/>
<path d="M1652.69 246.078C1653.63 246.078 1654.39 245.316 1654.39 244.378C1654.39 243.439 1653.63 242.678 1652.69 242.678C1651.75 242.678 1650.99 243.439 1650.99 244.378C1650.99 245.316 1651.75 246.078 1652.69 246.078Z" fill="#F8ECD6"/>
<path d="M1666.09 225.078C1667.03 225.078 1667.79 224.316 1667.79 223.378C1667.79 222.439 1667.03 221.678 1666.09 221.678C1665.15 221.678 1664.39 222.439 1664.39 223.378C1664.39 224.316 1665.15 225.078 1666.09 225.078Z" fill="#F8ECD6"/>
<path d="M1597.29 212.378C1599.29 208.978 1600.49 206.378 1603.69 204.078C1605.09 203.078 1607.79 202.378 1608.99 200.978C1610.19 199.678 1612.19 200.478 1613.69 199.578C1617.19 197.278 1620.59 195.078 1624.29 193.078C1624.69 192.878 1624.99 192.678 1625.39 192.478C1625.19 193.778 1626.79 194.778 1627.39 195.678C1628.09 196.978 1628.09 198.478 1628.69 199.878C1629.49 201.678 1630.49 203.378 1631.19 205.278C1632.39 208.278 1633.59 210.978 1635.19 213.778C1636.79 216.678 1638.59 219.478 1639.69 222.678C1639.79 222.878 1639.89 223.178 1639.89 223.378C1642.29 231.178 1643.79 238.778 1644.49 246.878C1644.89 251.478 1645.69 255.878 1646.49 260.378C1647.19 264.078 1648.39 260.978 1649.39 264.578C1650.49 268.678 1656.09 275.478 1655.89 274.678C1655.99 275.378 1656.19 274.878 1657.99 272.778C1662.79 267.178 1663.39 262.178 1665.19 254.978C1666.09 251.478 1666.79 247.978 1667.79 244.478C1668.89 240.678 1670.89 237.078 1672.09 233.178C1674.49 224.878 1679.09 217.378 1681.69 209.078C1682.59 206.178 1682.39 203.278 1684.09 200.778C1684.89 199.678 1685.99 198.878 1686.89 197.878C1687.29 197.378 1687.49 196.878 1687.89 196.378C1688.19 195.878 1688.79 195.578 1689.09 195.078C1698.99 199.478 1710.19 202.378 1714.09 213.578C1721.99 236.078 1714.39 264.078 1710.49 286.578C1709.69 291.178 1709.69 298.178 1709.19 302.978C1709.09 303.778 1692.09 305.378 1691.99 306.178L1596.89 305.678C1596.89 302.178 1597.39 296.578 1596.89 293.078C1595.29 282.178 1597.49 270.878 1596.19 259.878C1595.59 255.178 1595.89 250.378 1594.89 245.678C1594.19 242.478 1593.59 239.778 1593.59 236.478C1593.09 228.078 1592.79 219.978 1597.29 212.378Z" fill="#4E6BB1"/>
<path d="M1686.69 194.078C1686.39 193.978 1686.29 193.778 1686.19 193.678C1686.29 193.778 1686.39 193.778 1686.49 193.878C1686.69 193.978 1686.99 194.078 1687.19 194.178C1686.99 194.178 1686.79 194.078 1686.69 194.078Z" fill="#4E6BB1"/>
<path d="M1620.79 269.078C1625.49 277.378 1637.39 280.478 1645.49 275.578" stroke="#8097CB" stroke-width="0.6622" stroke-miterlimit="10"/>
<path d="M1666.29 274.378C1669.79 276.778 1674.19 277.878 1678.39 277.378C1682.59 276.878 1686.59 274.778 1689.39 271.578C1689.99 270.878 1691.19 270.078 1691.49 269.278" stroke="#8097CB" stroke-width="0.6622" stroke-miterlimit="10"/>
<path d="M1626.09 191.978C1626.09 191.978 1629.49 199.278 1637.19 220.478C1644.89 241.678 1656.09 275.278 1656.09 275.278C1656.09 275.278 1637.19 254.478 1617.29 240.078C1611.99 236.178 1625.19 229.178 1625.19 229.178C1625.19 229.178 1611.49 227.878 1605.79 220.878C1601.99 216.178 1601.09 206.578 1601.09 206.578C1601.09 206.578 1603.89 201.678 1613.29 197.978C1620.29 195.278 1626.09 191.978 1626.09 191.978Z" fill="url(#paint9_linear_341_460)"/>
<path d="M1627.79 190.978C1627.79 190.978 1630.39 196.878 1638.09 217.978C1645.79 239.178 1656.09 275.378 1656.09 275.378C1656.09 275.378 1638.09 252.078 1618.19 237.678C1612.89 233.778 1626.09 226.778 1626.09 226.778C1626.09 226.778 1612.39 225.478 1606.69 218.478C1602.89 213.778 1601.99 204.178 1601.99 204.178C1601.99 204.178 1604.79 199.278 1614.19 195.578C1621.19 192.878 1627.79 190.978 1627.79 190.978Z" fill="#8097CB"/>
<path d="M1686.39 193.978C1686.39 193.978 1682.99 201.278 1675.29 222.478C1667.59 243.678 1656.09 275.378 1656.09 275.378C1656.09 275.378 1675.19 256.578 1695.09 242.178C1700.39 238.278 1687.19 231.278 1687.19 231.278C1687.19 231.278 1700.89 229.978 1706.59 222.978C1710.39 218.278 1711.29 208.678 1711.29 208.678C1711.29 208.678 1708.49 203.778 1699.09 200.078C1692.19 197.178 1686.39 193.978 1686.39 193.978Z" fill="url(#paint10_linear_341_460)"/>
<path d="M1684.79 192.578C1684.79 192.578 1681.29 199.578 1673.69 220.778C1666.09 241.978 1656.09 275.278 1656.09 275.278C1656.09 275.278 1673.69 254.778 1693.59 240.478C1698.89 236.578 1685.69 229.578 1685.69 229.578C1685.69 229.578 1699.39 228.278 1705.09 221.278C1708.89 216.578 1709.79 206.978 1709.79 206.978C1709.79 206.978 1706.69 201.278 1697.29 197.678C1690.19 194.778 1684.79 192.578 1684.79 192.578Z" fill="#8097CB"/>
<path d="M1744.09 200.278C1745.29 200.378 1745.89 198.378 1746.09 197.378C1746.29 196.378 1746.49 195.478 1746.89 194.578C1747.39 193.678 1748.19 193.278 1748.89 192.678C1750.69 191.078 1753.09 189.978 1754.69 188.078C1755.69 186.878 1757.69 186.578 1758.99 185.778C1759.49 185.478 1759.99 185.178 1760.49 184.878C1760.99 184.578 1761.49 184.478 1762.09 184.378C1762.59 184.278 1762.99 184.578 1763.49 184.678C1764.49 184.878 1765.29 184.378 1766.19 184.078C1766.79 183.878 1767.29 183.778 1767.89 183.578C1768.99 183.178 1769.89 182.778 1771.19 182.678C1772.39 182.578 1773.29 181.878 1774.29 181.278C1774.99 180.878 1775.89 180.478 1776.59 179.978C1775.89 179.878 1775.39 179.578 1774.69 179.678C1773.89 179.778 1773.09 179.878 1772.39 180.078C1772.09 180.178 1771.79 180.378 1771.49 180.478C1771.19 180.578 1770.89 180.578 1770.59 180.578C1770.09 180.578 1769.49 180.678 1768.99 180.678C1768.19 180.778 1767.39 181.178 1766.49 181.078C1766.99 180.678 1767.49 180.278 1768.09 179.878C1771.59 177.678 1775.49 175.978 1779.29 174.278C1780.19 173.878 1781.09 173.778 1781.99 173.478C1780.69 172.878 1779.39 172.678 1778.09 172.778C1770.69 173.478 1760.19 185.278 1775.99 168.178C1779.59 164.378 1782.19 164.378 1778.39 164.778C1777.29 164.878 1776.19 165.478 1775.29 166.078C1773.99 166.878 1772.79 167.778 1771.59 168.778C1769.49 170.478 1767.39 172.278 1765.19 173.978C1764.89 174.178 1764.39 174.678 1763.99 174.478C1763.39 174.078 1764.29 171.778 1764.49 171.378C1764.89 170.378 1764.99 169.278 1765.39 168.278C1764.99 168.078 1764.49 168.178 1764.09 168.078C1763.59 167.978 1763.09 167.778 1762.59 167.478C1761.59 167.078 1760.59 166.678 1759.59 166.278C1758.69 165.978 1757.79 165.678 1756.89 165.378C1756.49 165.278 1756.19 165.178 1755.79 165.078C1755.39 164.978 1754.89 164.678 1754.39 164.678C1754.19 165.378 1754.39 166.778 1754.79 167.278C1755.29 167.978 1756.19 168.678 1756.89 169.278C1757.69 169.878 1758.29 170.278 1759.19 170.578C1759.39 170.678 1759.99 170.778 1760.09 170.978C1760.19 171.278 1759.79 171.678 1759.59 171.978C1759.39 172.378 1759.39 172.678 1759.19 173.078C1759.09 173.378 1758.79 173.678 1758.59 173.978C1758.19 174.678 1757.69 175.278 1756.99 175.678C1755.39 176.478 1753.09 176.578 1751.79 175.178C1751.09 174.378 1750.69 173.178 1750.99 172.078C1751.29 171.078 1752.09 170.678 1752.69 169.878C1753.19 169.178 1753.99 168.378 1753.89 167.478C1753.79 166.878 1753.69 166.178 1753.69 165.578C1753.69 165.278 1753.79 164.478 1753.49 164.278C1752.99 163.978 1751.99 164.978 1751.69 165.278C1750.59 166.678 1749.39 168.078 1748.19 169.278C1747.39 170.078 1747.09 171.078 1746.69 172.178C1746.29 173.278 1745.79 174.278 1745.59 175.378C1745.49 176.078 1745.69 176.978 1745.39 177.678C1745.19 178.078 1744.89 178.378 1744.59 178.678C1744.19 179.178 1743.79 179.778 1743.49 180.378C1742.89 181.478 1742.29 182.478 1741.79 183.578C1740.99 185.278 1740.39 186.978 1739.39 188.478C1738.79 189.478 1738.29 190.478 1737.69 191.478C1737.29 192.178 1732.89 203.578 1733.99 204.278C1734.79 204.878 1738.69 212.578 1739.09 204.278C1739.19 202.578 1741.89 198.678 1743.19 199.578C1743.59 200.278 1743.89 200.278 1744.09 200.278Z" fill="url(#paint11_linear_341_460)"/>
<path d="M1764.69 163.378L1764.29 162.978L1746.39 180.978L1746.09 180.678L1741.39 183.278L1740.49 182.378L1743.09 177.678L1742.79 177.378L1760.29 159.878L1760.79 159.478L1760.59 159.178L1762.49 157.378" fill="#9CB3DB"/>
<path d="M1745.39 179.878L1746.39 180.978L1763.89 163.478L1760.29 159.878L1742.79 177.378L1743.89 178.378L1745.39 179.878Z" fill="#EEBF3B"/>
<path d="M1740.49 183.678L1741.39 183.378L1740.39 182.378L1740.09 183.278C1739.99 183.578 1740.19 183.778 1740.49 183.678Z" fill="#EEBF3B"/>
<path d="M1745.09 181.778L1745.69 181.278L1742.49 178.178L1741.89 178.778L1740.89 181.478L1742.29 182.878L1745.09 181.778Z" fill="#15123F"/>
<path d="M1764.29 162.978L1764.69 163.378C1765.29 162.778 1765.99 162.078 1766.59 161.378L1766.79 161.578L1766.99 161.778L1767.19 162.078L1760.19 169.078C1759.89 169.378 1759.89 169.778 1760.19 169.978L1760.29 170.078C1760.59 170.378 1760.99 170.378 1761.19 170.078L1771.39 159.778C1771.69 159.478 1771.69 159.078 1771.39 158.878L1771.29 158.778C1770.99 158.478 1770.59 158.478 1770.39 158.778L1768.99 160.178L1768.69 159.878L1768.49 159.678L1768.29 159.478C1769.29 158.278 1770.39 157.078 1771.39 155.878C1772.39 154.778 1773.29 153.578 1774.09 152.478C1775.79 150.278 1777.19 148.378 1777.89 146.978L1776.79 145.878C1775.39 146.578 1773.39 147.978 1771.29 149.678C1769.79 150.878 1768.09 152.278 1766.49 153.678C1764.29 155.578 1762.19 157.478 1760.49 159.178L1760.69 159.378L1764.29 162.978Z" fill="#15123F"/>
<path d="M1764.39 171.678C1764.79 170.678 1764.89 169.578 1765.29 168.578C1764.89 168.378 1764.39 168.478 1763.99 168.378C1763.49 168.278 1762.99 168.078 1762.49 167.778C1761.49 167.378 1760.49 166.978 1759.49 166.578C1758.59 166.278 1757.69 165.978 1756.79 165.678C1756.39 165.578 1756.09 165.478 1755.69 165.378C1755.29 165.278 1754.79 164.978 1754.29 164.978C1754.09 165.678 1754.29 167.078 1754.69 167.578C1755.19 168.278 1756.09 168.978 1756.79 169.578C1757.59 170.178 1758.19 170.578 1759.09 170.878C1759.29 170.978 1759.89 171.078 1759.99 171.278C1760.09 171.578 1759.69 171.978 1759.49 172.278C1759.29 172.678 1759.29 172.978 1759.09 173.378C1758.99 173.678 1758.69 173.978 1758.49 174.278C1758.09 174.878 1757.59 175.578 1756.89 175.978L1763.79 174.778C1763.29 174.378 1764.29 172.078 1764.39 171.678Z" fill="url(#paint12_linear_341_460)"/>
<path d="M1702.79 262.178C1709.69 243.678 1737.89 191.578 1737.89 191.578L1747.69 195.878C1747.69 195.878 1742.39 282.678 1709.69 302.278C1689.09 314.578 1699.19 271.678 1702.79 262.178Z" fill="url(#paint13_linear_341_460)"/>
<path d="M1749.39 192.778L1738.49 190.078L1726.29 197.278L1748.19 207.678L1749.39 192.778Z" fill="#8097CB"/>
<path d="M1746.69 206.078L1733.49 200.478L1731.59 204.278L1746.29 208.978L1746.69 206.078Z" fill="#3D57A5"/>
<path d="M1633.99 152.778C1639.24 152.778 1643.49 147.315 1643.49 140.578C1643.49 133.84 1639.24 128.378 1633.99 128.378C1628.75 128.378 1624.49 133.84 1624.49 140.578C1624.49 147.315 1628.75 152.778 1633.99 152.778Z" fill="#CFDAEE"/>
<path d="M1635.69 148.478C1639.61 148.478 1642.79 144.269 1642.79 139.078C1642.79 133.886 1639.61 129.678 1635.69 129.678C1631.77 129.678 1628.59 133.886 1628.59 139.078C1628.59 144.269 1631.77 148.478 1635.69 148.478Z" fill="#9CB3DB"/>
<path d="M1632.29 141.978C1632.29 162.178 1639.39 170.778 1649.79 170.678C1660.19 170.578 1669.59 159.378 1670.09 145.178C1670.69 131.078 1663.89 117.278 1649.49 117.478C1633.89 117.678 1632.39 127.878 1632.29 141.978Z" fill="url(#paint14_linear_341_460)"/>
<path d="M1632.79 147.478C1632.69 147.478 1632.59 147.478 1632.49 147.478C1632.59 150.778 1633.49 153.878 1633.89 156.478C1636.19 156.278 1637.49 153.978 1637.39 151.578C1637.29 149.178 1635.29 147.378 1632.79 147.478Z" fill="#E06F52"/>
<path d="M1656.69 156.166C1659.12 156.14 1661.07 154.149 1661.04 151.719C1661.01 149.289 1659.02 147.341 1656.59 147.367C1654.16 147.393 1652.21 149.384 1652.24 151.814C1652.27 154.243 1654.26 156.192 1656.69 156.166Z" fill="#E06F52"/>
<path d="M1644.39 142.978C1644.69 145.278 1643.19 147.378 1642.79 149.578C1642.69 149.978 1642.89 150.778 1643.99 151.078C1644.99 151.278 1645.99 151.378 1646.99 151.378" stroke="#15123F" stroke-width="0.5" stroke-miterlimit="10" stroke-linecap="round" stroke-linejoin="round"/>
<path d="M1654.59 140.678C1654.79 141.178 1654.89 141.678 1654.89 142.178C1654.89 142.678 1654.89 143.278 1654.59 143.778C1654.29 144.278 1653.69 144.478 1653.19 144.278C1652.69 144.078 1652.59 143.478 1652.49 142.878C1652.39 142.178 1652.39 141.478 1652.49 140.778C1652.59 140.278 1652.89 139.778 1653.49 139.778C1654.19 139.678 1654.49 140.278 1654.59 140.678Z" fill="#15123F"/>
<path d="M1654.99 145.078C1654.49 145.478 1653.79 145.578 1653.19 145.378C1652.99 145.278 1652.69 145.178 1652.59 144.978" stroke="#15123F" stroke-width="0.3311" stroke-miterlimit="10" stroke-linecap="round" stroke-linejoin="round"/>
<path d="M1656.09 136.178C1655.19 136.078 1654.29 136.078 1653.39 136.178C1652.29 136.278 1651.19 136.578 1650.09 136.178C1649.79 136.078 1649.39 135.778 1649.39 135.478C1649.39 135.178 1649.69 134.878 1650.09 134.778C1651.49 134.078 1653.09 134.178 1654.69 134.278C1655.49 134.378 1656.69 134.478 1657.29 135.078C1657.99 135.878 1656.79 136.278 1656.09 136.178Z" fill="#15123F"/>
<path d="M1657.69 134.978C1657.89 135.078 1658.09 135.278 1658.09 135.578C1658.09 135.878 1657.99 136.078 1657.79 136.178" stroke="#15123F" stroke-width="0.3311" stroke-miterlimit="10" stroke-linecap="round" stroke-linejoin="round"/>
<path d="M1637.19 141.078C1637.39 141.578 1637.49 142.078 1637.49 142.578C1637.49 143.078 1637.49 143.678 1637.29 144.178C1636.99 144.578 1636.49 144.878 1636.09 144.678C1635.69 144.478 1635.49 143.778 1635.49 143.278C1635.39 142.578 1635.39 141.878 1635.49 141.178C1635.49 140.678 1635.89 140.178 1636.39 140.178C1636.79 139.978 1637.09 140.678 1637.19 141.078Z" fill="#15123F"/>
<path d="M1638.19 144.378C1638.09 144.978 1637.59 145.578 1637.09 145.878C1636.89 145.978 1636.59 146.078 1636.39 145.978" stroke="#15123F" stroke-width="0.3311" stroke-miterlimit="10" stroke-linecap="round" stroke-linejoin="round"/>
<path d="M1640.89 136.178C1640.19 136.478 1639.39 136.278 1638.59 136.278C1637.29 136.278 1636.09 136.678 1634.79 136.578C1634.59 136.578 1634.39 136.578 1634.29 136.478C1634.09 136.378 1633.99 136.178 1634.09 135.978C1634.09 135.878 1634.19 135.778 1634.29 135.778C1635.79 134.778 1637.59 134.478 1639.29 134.478C1639.79 134.478 1640.59 134.278 1641.09 134.478C1641.89 135.078 1641.59 135.878 1640.89 136.178Z" fill="#15123F"/>
<path d="M1633.59 135.978C1633.39 136.378 1633.49 136.878 1633.79 137.178" stroke="#15123F" stroke-width="0.3311" stroke-miterlimit="10" stroke-linecap="round" stroke-linejoin="round"/>
<path d="M1651.09 156.278C1651.09 156.278 1648.69 157.578 1646.49 157.778C1644.19 157.978 1641.49 156.778 1641.49 156.778C1641.49 156.778 1642.19 160.578 1643.99 161.978C1645.39 163.078 1648.29 162.878 1649.19 161.878C1651.09 159.678 1651.09 156.278 1651.09 156.278Z" fill="white"/>
<path d="M1632.69 142.878C1632.59 141.378 1631.39 136.478 1631.39 136.478C1636.89 132.578 1639.89 121.978 1639.89 121.978C1649.69 135.978 1668.49 135.478 1668.49 135.478C1668.49 135.478 1669.79 143.378 1669.59 147.578C1670.19 147.978 1672.39 144.378 1673.79 142.578C1676.79 138.978 1681.49 129.178 1676.39 117.178C1669.59 100.978 1640.89 98.9776 1634.09 113.678C1620.89 118.978 1627.19 138.178 1631.39 141.578C1632.39 141.178 1632.09 142.678 1632.69 142.878Z" fill="#15123F"/>
<path d="M1634.29 131.878C1634.29 131.878 1633.89 132.078 1633.29 132.478C1632.99 132.678 1632.59 132.978 1632.29 133.278C1631.99 133.578 1631.59 133.978 1631.59 134.378C1631.59 134.478 1631.59 134.578 1631.59 134.678V134.778C1631.59 134.778 1631.59 134.878 1631.59 134.678V134.978C1631.59 135.178 1631.69 135.178 1631.69 135.278C1631.69 135.378 1631.79 135.478 1631.89 135.578C1632.19 135.978 1632.59 136.478 1633.19 137.178C1633.69 137.778 1634.39 138.578 1634.79 139.878C1634.89 140.178 1634.89 140.578 1634.89 140.978C1634.89 141.178 1634.89 141.378 1634.89 141.578L1634.79 141.878V142.078C1634.79 142.178 1634.79 142.178 1634.69 142.278L1634.59 142.578C1634.49 142.778 1634.39 142.978 1634.29 143.178L1633.99 143.578L1633.69 143.978C1632.69 144.878 1631.79 145.178 1631.09 145.578C1630.39 145.878 1629.69 146.178 1629.39 146.578C1628.99 146.878 1628.89 147.178 1628.79 147.678C1628.69 148.178 1628.79 148.678 1628.99 149.178C1629.39 150.178 1630.09 150.978 1630.59 151.578C1631.09 152.178 1631.39 152.478 1631.39 152.478C1631.39 152.478 1630.99 152.378 1630.19 152.078C1629.79 151.978 1629.39 151.778 1628.89 151.478C1628.39 151.178 1627.79 150.778 1627.29 150.178C1626.79 149.578 1626.39 148.778 1626.19 147.778C1626.09 147.278 1626.09 146.678 1626.29 146.078C1626.29 145.978 1626.39 145.678 1626.49 145.678L1626.59 145.578C1626.69 145.378 1626.69 145.378 1626.69 145.378C1626.79 145.078 1626.99 144.878 1627.19 144.678C1627.99 143.778 1628.89 143.278 1629.59 142.878C1630.39 142.478 1631.09 142.078 1631.39 141.778L1631.49 141.678C1631.49 141.678 1631.49 141.578 1631.59 141.578V141.478V141.278V141.178C1631.59 141.078 1631.59 141.378 1631.59 141.378V141.278C1631.59 141.178 1631.59 141.178 1631.59 141.078C1631.59 140.678 1631.19 140.078 1630.79 139.378C1630.39 138.678 1629.89 137.878 1629.59 136.978C1629.49 136.678 1629.49 136.478 1629.39 136.178C1629.39 135.878 1629.39 135.478 1629.39 135.378L1629.49 135.078C1629.49 134.878 1629.49 134.978 1629.49 134.978V134.878L1629.59 134.678C1629.69 134.478 1629.79 134.178 1629.89 134.078C1630.39 133.278 1631.09 132.978 1631.69 132.778C1632.29 132.578 1632.79 132.478 1633.19 132.478C1633.89 131.778 1634.29 131.878 1634.29 131.878Z" fill="#15123F"/>
<path d="M1678.09 142.378C1681.99 145.378 1690.49 152.578 1694.39 155.578C1696.49 157.178 1698.69 158.878 1700.09 161.078C1701.49 163.378 1702.09 166.378 1700.69 168.678C1699.89 170.178 1698.39 171.078 1696.99 171.978C1694.59 173.578 1691.99 174.978 1690.09 177.178C1688.19 179.378 1686.89 182.378 1687.69 185.178C1688.49 188.278 1691.39 190.278 1693.49 192.678C1697.89 197.878 1698.49 205.578 1696.09 212.078C1693.69 218.478 1688.79 223.678 1683.39 227.678C1676.39 232.878 1667.49 236.578 1658.89 234.878C1654.39 233.978 1649.69 230.878 1649.19 226.278C1648.69 220.878 1653.79 216.878 1658.19 213.878C1658.79 213.478 1659.39 213.078 1659.69 212.378C1660.39 210.678 1658.49 209.078 1656.99 207.978C1650.59 202.978 1650.19 191.878 1656.19 186.378C1659.29 183.478 1663.49 182.278 1667.49 180.778C1671.49 179.278 1675.49 177.178 1677.59 173.478C1679.69 169.778 1678.69 164.078 1674.69 162.678C1674.49 162.778 1671.79 160.478 1671.49 158.578C1671.29 157.378 1670.99 156.678 1670.79 155.478C1670.59 154.378 1670.79 152.878 1671.19 151.878" fill="#15123F"/>
<path d="M1682.09 151.178C1684.79 153.178 1688.19 159.478 1690.59 161.878C1691.59 162.878 1692.49 163.878 1692.69 165.278C1693.09 167.878 1690.59 169.978 1688.39 171.478C1684.89 173.878 1681.39 176.678 1679.29 180.478C1677.29 184.278 1676.99 189.278 1679.69 192.678C1680.89 194.278 1682.69 195.278 1684.19 196.578C1685.69 197.878 1687.09 199.578 1687.09 201.578C1687.19 203.578 1685.29 205.678 1683.39 205.078" stroke="#9CB3DB" stroke-width="0.3311" stroke-miterlimit="10"/>
<path d="M1672.09 184.578C1662.59 189.678 1661.69 196.078 1663.29 198.878C1664.59 201.178 1667.09 202.478 1668.89 204.378C1671.59 207.378 1672.29 212.178 1670.49 215.878C1668.69 219.578 1664.59 221.978 1660.49 221.678" stroke="#9CB3DB" stroke-width="0.3311" stroke-miterlimit="10"/>
<path d="M1676.69 135.078C1676.69 135.078 1676.59 134.878 1676.49 134.478C1676.39 134.078 1676.09 133.478 1675.79 132.778C1675.49 132.078 1675.09 131.278 1674.59 130.278C1674.09 129.378 1673.39 128.378 1672.69 127.378C1671.99 126.378 1670.99 125.378 1669.99 124.378C1668.99 123.378 1667.79 122.378 1666.59 121.378C1665.39 120.378 1663.99 119.478 1662.59 118.678C1661.19 117.778 1659.69 116.978 1658.19 116.278C1657.49 115.978 1656.59 115.578 1655.89 115.278C1655.49 115.078 1654.99 114.878 1654.69 114.778L1653.59 114.378C1652.89 114.178 1652.09 113.978 1651.29 113.778C1650.49 113.578 1649.79 113.378 1648.99 113.278C1647.49 113.078 1645.99 112.878 1644.49 112.778C1643.09 112.678 1641.69 112.778 1640.39 112.778C1639.79 112.878 1639.09 112.878 1638.59 112.978C1637.99 113.078 1637.49 113.078 1636.89 113.178C1636.39 113.278 1635.89 113.378 1635.39 113.478C1634.99 113.578 1634.49 113.678 1634.19 113.778C1633.79 113.878 1633.49 113.978 1633.19 114.078C1632.89 114.178 1632.69 114.278 1632.49 114.378C1632.09 114.478 1631.89 114.578 1631.89 114.578L1631.69 114.278C1631.69 114.278 1631.89 114.178 1632.19 113.878C1632.39 113.778 1632.59 113.578 1632.79 113.478C1633.09 113.278 1633.39 113.178 1633.69 112.978C1633.99 112.778 1634.39 112.578 1634.89 112.378C1635.29 112.178 1635.79 111.978 1636.29 111.778C1637.29 111.378 1638.49 110.978 1639.89 110.678C1641.19 110.378 1642.69 110.178 1644.29 110.078C1645.89 109.978 1647.49 109.978 1649.19 110.178C1650.89 110.278 1652.59 110.678 1654.39 111.078C1655.29 111.378 1656.09 111.578 1656.99 111.978C1657.89 112.278 1658.69 112.678 1659.49 113.078C1662.79 114.678 1665.79 116.678 1668.39 118.978C1670.99 121.278 1672.99 123.778 1674.29 126.178C1675.59 128.578 1676.29 130.778 1676.59 132.378C1676.79 133.178 1676.89 133.778 1676.89 134.178C1676.89 134.578 1676.99 134.778 1676.99 134.778L1676.69 135.078Z" fill="#CFDAEE"/>
<path d="M1671.49 153.378C1676.74 153.378 1680.99 147.915 1680.99 141.178C1680.99 134.44 1676.74 128.978 1671.49 128.978C1666.25 128.978 1661.99 134.44 1661.99 141.178C1661.99 147.915 1666.25 153.378 1671.49 153.378Z" fill="#9CB3DB"/>
<path d="M1673.09 149.078C1677.01 149.078 1680.19 144.869 1680.19 139.678C1680.19 134.486 1677.01 130.278 1673.09 130.278C1669.17 130.278 1665.99 134.486 1665.99 139.678C1665.99 144.869 1669.17 149.078 1673.09 149.078Z" fill="#CFDAEE"/>
<path d="M1671.49 150.078C1670.89 152.278 1670.29 154.578 1669.59 156.778C1669.39 157.578 1669.19 158.378 1668.59 158.978C1667.89 159.778 1666.79 160.078 1665.79 160.378C1661.69 161.278 1657.39 161.478 1653.29 160.978" stroke="#15123F" stroke-width="0.9933" stroke-miterlimit="10"/>
<path d="M1659.89 160.778V161.578C1659.89 162.378 1659.29 163.078 1658.49 163.078L1653.69 163.278C1652.89 163.278 1652.19 162.678 1652.19 161.878V161.078C1652.19 160.278 1652.79 159.578 1653.59 159.578L1658.39 159.378C1659.19 159.278 1659.79 159.978 1659.89 160.778Z" fill="#15123F"/>
<path d="M1462.59 220.678C1462.59 220.678 1454.99 206.678 1451.19 202.178C1446.09 196.078 1436.89 195.078 1432.99 204.878C1429.39 213.878 1436.19 220.078 1443.49 221.478C1450.69 222.978 1462.59 220.678 1462.59 220.678Z" fill="url(#paint15_linear_341_460)"/>
<path d="M1473.49 217.178C1473.49 217.178 1471.29 200.978 1472.19 193.378C1473.19 185.778 1479.99 184.878 1484.59 187.078C1489.09 189.278 1492.69 194.178 1490.39 201.578C1488.09 208.978 1473.49 217.178 1473.49 217.178Z" fill="url(#paint16_linear_341_460)"/>
<path d="M1469.89 242.278C1469.89 242.278 1458.59 231.578 1453.19 228.978C1447.79 226.378 1439.89 228.178 1438.89 235.978C1437.89 243.678 1440.89 249.178 1449.39 250.278C1457.99 251.278 1469.89 242.278 1469.89 242.278Z" fill="url(#paint17_linear_341_460)"/>
<path d="M1481.09 236.678C1481.09 236.678 1481.29 224.978 1483.39 217.678C1485.49 210.478 1491.49 209.578 1495.89 212.878C1500.29 216.178 1501.99 223.178 1498.59 227.678C1495.09 232.178 1481.09 236.678 1481.09 236.678Z" fill="url(#paint18_linear_341_460)"/>
<path d="M1463.29 201.078C1463.29 201.078 1455.69 195.078 1448.09 186.178C1440.39 177.378 1442.39 160.978 1455.19 159.178C1466.79 157.578 1471.69 168.678 1471.29 177.478C1470.89 186.378 1463.29 201.078 1463.29 201.078Z" fill="url(#paint19_linear_341_460)"/>
<path d="M1457.39 169.178C1457.39 169.178 1461.69 216.078 1490.39 277.178" stroke="#15123F" stroke-width="0.3311" stroke-miterlimit="10" stroke-linecap="round" stroke-linejoin="round"/>
<path d="M1440.19 209.378C1450.59 215.378 1469.69 223.978 1469.69 223.978C1469.69 223.978 1478.59 207.678 1481.49 197.978" stroke="#15123F" stroke-width="0.3311" stroke-miterlimit="10" stroke-linecap="round" stroke-linejoin="round"/>
<path d="M1447.79 238.978C1460.49 241.078 1476.19 243.178 1476.19 243.178C1476.19 243.178 1486.99 229.178 1492.69 219.978" stroke="#15123F" stroke-width="0.3311" stroke-miterlimit="10" stroke-linecap="round" stroke-linejoin="round"/>
<path d="M1492.69 137.278C1491.09 137.178 1489.59 138.378 1488.39 139.578C1479.99 148.378 1476.29 160.478 1474.19 172.378C1473.09 178.578 1472.39 184.878 1472.09 191.278C1471.49 202.778 1471.29 214.378 1473.19 225.778C1474.19 231.478 1474.69 234.678 1476.29 240.178C1477.49 244.478 1481.29 252.378 1487.09 251.678C1485.59 240.778 1484.29 222.578 1485.59 196.978C1486.89 169.878 1490.19 149.478 1492.69 137.278Z" fill="url(#paint20_linear_341_460)"/>
<path d="M1493.09 245.578C1497.29 235.878 1498.89 225.378 1500.29 214.878C1501.29 207.278 1502.19 199.578 1502.89 191.978C1503.69 183.078 1504.39 174.178 1503.59 165.278C1502.79 156.378 1501.69 147.778 1496.99 140.178C1496.39 139.178 1494.59 137.878 1493.39 137.478C1493.19 137.378 1492.89 137.378 1492.69 137.378C1490.19 149.578 1486.79 169.978 1485.49 197.178C1484.19 222.778 1485.59 240.878 1486.99 251.878C1487.09 251.878 1487.19 251.878 1487.39 251.778C1490.19 251.178 1491.89 248.278 1493.09 245.578Z" fill="url(#paint21_linear_341_460)"/>
<path d="M1492.79 136.978C1482.49 176.978 1482.49 235.678 1489.99 281.778" stroke="#FDF8F5" stroke-width="0.3311" stroke-miterlimit="10"/>
<path d="M1485.89 191.578C1491.19 187.178 1495.99 182.278 1500.19 176.978" stroke="#FDF8F5" stroke-width="0.3311" stroke-miterlimit="10"/>
<path d="M1472.99 192.078C1476.19 198.178 1480.39 203.678 1485.29 208.478" stroke="#FDF8F5" stroke-width="0.3311" stroke-miterlimit="10"/>
<path d="M1485.29 221.978C1486.89 221.778 1488.29 220.678 1489.69 219.678C1491.99 217.878 1494.29 216.078 1496.19 213.878" stroke="#FDF8F5" stroke-width="0.3311" stroke-miterlimit="10"/>
<path d="M1469.59 265.978H1491.39C1491.39 265.978 1515.79 227.378 1508.89 213.078C1508.89 213.078 1522.89 181.078 1513.69 176.678C1504.49 172.278 1492.99 198.778 1492.99 198.778C1492.99 198.778 1471.89 198.178 1469.59 265.978Z" fill="url(#paint22_linear_341_460)"/>
<path d="M1513.79 176.678C1513.79 176.678 1489.19 221.278 1480.79 265.978" stroke="#15123F" stroke-width="0.3311" stroke-miterlimit="10" stroke-linecap="round" stroke-linejoin="round"/>
<path d="M1488.79 304.078H1466.19L1462.49 265.978H1492.59L1488.79 304.078Z" fill="#15123F"/>
<path d="M1497.19 265.978H1458.59V272.978H1497.19V265.978Z" fill="#383964"/>
<path d="M1463.19 272.978L1491.29 278.178L1491.89 272.978H1463.19Z" fill="#111124"/>
<path d="M1610.69 231.178C1610.39 228.978 1608.49 227.378 1606.29 227.378L1606.79 229.078L1492.69 228.478C1491.59 229.478 1490.89 230.978 1491.19 232.578L1502.29 303.678H1622.09L1610.69 231.178Z" fill="url(#paint23_linear_341_460)"/>
<path d="M1606.29 227.378H1495.59C1494.49 227.378 1492.79 228.078 1491.99 229.278L1609.29 229.378L1606.29 227.378Z" fill="#EBF0F8"/>
<path d="M1667.49 303.678H1596.09V295.778H1667.49C1669.69 295.778 1671.49 297.578 1671.49 299.778C1671.49 301.878 1669.69 303.678 1667.49 303.678Z" fill="#CFDAEE"/>
<path d="M1552.69 272.878C1556.17 272.878 1558.99 270.057 1558.99 266.578C1558.99 263.098 1556.17 260.278 1552.69 260.278C1549.21 260.278 1546.39 263.098 1546.39 266.578C1546.39 270.057 1549.21 272.878 1552.69 272.878Z" fill="#CFDAEE"/>
<path d="M1609.99 229.378L1622.29 301.078L1616.79 301.978L1604.49 230.278C1604.19 228.778 1605.29 227.378 1606.79 227.078C1608.29 226.878 1609.69 227.878 1609.99 229.378Z" fill="#CFDAEE"/>
<path d="M1716.89 291.378C1716.89 291.378 1726.29 287.278 1722.69 275.778C1719.09 264.278 1705.29 266.478 1706.09 255.878C1706.89 245.078 1717.69 247.878 1722.69 244.778C1727.69 241.778 1722.99 233.078 1730.49 229.478C1737.99 225.878 1745.39 231.278 1755.69 233.078C1765.99 234.878 1774.89 236.578 1774.59 233.078C1774.29 229.578 1769.29 229.178 1770.99 224.878C1772.69 220.678 1781.09 220.678 1782.39 221.878C1782.39 221.878 1773.19 221.878 1772.89 225.078C1772.59 228.278 1779.69 229.778 1779.39 235.578C1779.09 241.378 1766.49 240.178 1754.29 239.378C1741.99 238.578 1743.09 243.478 1744.09 249.578C1745.09 255.678 1743.09 259.778 1735.09 260.778C1727.09 261.878 1723.39 262.878 1727.79 271.678C1731.69 279.278 1728.59 286.378 1721.39 291.378H1716.89V291.378Z" fill="url(#paint24_linear_341_460)"/>
<path d="M1731.09 290.778C1730.39 297.178 1728.19 301.378 1726.99 303.178C1726.59 303.878 1725.79 304.278 1724.99 304.278H1716.69C1715.89 304.278 1715.09 303.878 1714.69 303.178C1713.49 301.378 1711.29 297.178 1710.59 290.778C1710.49 290.078 1711.09 289.478 1711.79 289.478H1729.99C1730.69 289.478 1731.19 290.078 1731.09 290.778Z" fill="#EEBF3B"/>
<path d="M1729.49 294.878C1730.29 294.178 1732.29 292.878 1733.29 292.678C1733.69 292.578 1734.19 292.578 1734.59 292.678C1734.99 292.778 1735.39 293.178 1735.39 293.678C1735.39 293.978 1735.29 294.178 1735.19 294.378C1734.09 297.178 1731.29 299.178 1728.29 299.278" stroke="#EDBE3A" stroke-width="1.3244" stroke-miterlimit="10"/>
<path opacity="0.38" d="M1728.59 298.778C1728.79 298.778 1728.99 298.778 1729.19 298.778C1729.69 297.578 1730.09 296.278 1730.49 294.678H1710.99C1711.39 296.478 1711.99 297.978 1712.49 299.278H1728.89C1728.99 299.078 1728.99 298.978 1729.09 298.778C1728.99 298.778 1728.79 298.778 1728.59 298.778Z" fill="#F8ECD6"/>
<path d="M1771.69 312.878H1458.69V338.678H1771.69V312.878Z" fill="#CFDAEE"/>
<path d="M1451.19 311.878L1442.49 469.278H1448.29L1469.69 311.878H1451.19Z" fill="#44559F"/>
<path d="M1779.19 311.878L1787.89 469.278H1782.09L1760.59 311.878H1779.19Z" fill="#44559F"/>
<path d="M1787.69 315.378H1442.79C1439.69 315.378 1437.19 312.878 1437.19 309.778C1437.19 306.678 1439.69 304.178 1442.79 304.178H1787.69C1790.79 304.178 1793.29 306.678 1793.29 309.778C1793.29 312.878 1790.79 315.378 1787.69 315.378Z" fill="#44559F"/>
<path opacity="0.1" d="M1450.79 318.978L1780.39 334.178L1779.19 312.878H1451.19L1450.79 318.978Z" fill="url(#paint25_linear_341_460)"/>
<path d="M1785.69 473.678C1790.17 473.678 1793.79 472.424 1793.79 470.878C1793.79 469.331 1790.17 468.078 1785.69 468.078C1781.22 468.078 1777.59 469.331 1777.59 470.878C1777.59 472.424 1781.22 473.678 1785.69 473.678Z" fill="#D1DAEB"/>
<path d="M1445.19 473.678C1449.67 473.678 1453.29 472.424 1453.29 470.878C1453.29 469.331 1449.67 468.078 1445.19 468.078C1440.72 468.078 1437.09 469.331 1437.09 470.878C1437.09 472.424 1440.72 473.678 1445.19 473.678Z" fill="#D1DAEB"/>
<defs>
<linearGradient id="paint0_linear_341_460" x1="1534.6" y1="153.755" x2="1544.96" y2="153.755" gradientUnits="userSpaceOnUse">
<stop offset="0.2151" stop-color="#E9A793"/>
<stop offset="1" stop-color="#E06F52"/>
</linearGradient>
<linearGradient id="paint1_linear_341_460" x1="1554.55" y1="153.557" x2="1609.96" y2="154.714" gradientUnits="userSpaceOnUse">
<stop offset="0.0863958" stop-color="#EDBE3A" stop-opacity="0.9078"/>
<stop offset="0.7398" stop-color="#E28B36"/>
</linearGradient>
<linearGradient id="paint2_linear_341_460" x1="1563.81" y1="153.63" x2="1531.73" y2="153.96" gradientUnits="userSpaceOnUse">
<stop offset="0.2151" stop-color="#9CB3DB"/>
<stop offset="1" stop-color="#CFDAEE"/>
</linearGradient>
<linearGradient id="paint3_linear_341_460" x1="1571.2" y1="153.755" x2="1581.56" y2="153.755" gradientUnits="userSpaceOnUse">
<stop offset="0.2151" stop-color="#E9A793"/>
<stop offset="1" stop-color="#E06F52"/>
</linearGradient>
<linearGradient id="paint4_linear_341_460" x1="1619.43" y1="154.361" x2="1576.93" y2="153.534" gradientUnits="userSpaceOnUse">
<stop offset="0.2151" stop-color="#9CB3DB"/>
<stop offset="1" stop-color="#CFDAEE"/>
</linearGradient>
<linearGradient id="paint5_linear_341_460" x1="1558.48" y1="57.7663" x2="1660.13" y2="245.556" gradientUnits="userSpaceOnUse">
<stop offset="0.2151" stop-color="#9CB3DB"/>
<stop offset="1" stop-color="#CFDAEE"/>
</linearGradient>
<linearGradient id="paint6_linear_341_460" x1="1672.82" y1="114.583" x2="1735.06" y2="60.2897" gradientUnits="userSpaceOnUse">
<stop offset="0.2151" stop-color="#9CB3DB"/>
<stop offset="1" stop-color="#CFDAEE"/>
</linearGradient>
<linearGradient id="paint7_linear_341_460" x1="1698.14" y1="179.003" x2="1589.47" y2="208.278" gradientUnits="userSpaceOnUse">
<stop offset="2.872e-05" stop-color="#E06F52"/>
<stop offset="0.7496" stop-color="#E9A793"/>
</linearGradient>
<linearGradient id="paint8_linear_341_460" x1="1645.46" y1="164.199" x2="1667.62" y2="164.199" gradientUnits="userSpaceOnUse">
<stop offset="0.2151" stop-color="#A85640"/>
<stop offset="1" stop-color="#A85640" stop-opacity="0"/>
</linearGradient>
<linearGradient id="paint9_linear_341_460" x1="1672.92" y1="182.96" x2="1611.59" y2="263.059" gradientUnits="userSpaceOnUse">
<stop offset="0.1816" stop-color="#5B77B8"/>
<stop offset="0.5447" stop-color="#4A66AE"/>
</linearGradient>
<linearGradient id="paint10_linear_341_460" x1="1640.67" y1="185.599" x2="1699.8" y2="262.838" gradientUnits="userSpaceOnUse">
<stop offset="0.1816" stop-color="#5B77B8"/>
<stop offset="0.5447" stop-color="#4A66AE"/>
</linearGradient>
<linearGradient id="paint11_linear_341_460" x1="1733.92" y1="186.52" x2="1781.93" y2="186.52" gradientUnits="userSpaceOnUse">
<stop offset="2.872e-05" stop-color="#E06F52"/>
<stop offset="0.7496" stop-color="#E9A793"/>
</linearGradient>
<linearGradient id="paint12_linear_341_460" x1="1756.21" y1="159.608" x2="1764.71" y2="181.031" gradientUnits="userSpaceOnUse">
<stop offset="2.872e-05" stop-color="#E06F52"/>
<stop offset="0.9287" stop-color="#E9A793"/>
</linearGradient>
<linearGradient id="paint13_linear_341_460" x1="1747.76" y1="248.034" x2="1697.15" y2="248.034" gradientUnits="userSpaceOnUse">
<stop offset="0.1816" stop-color="#5B77B8"/>
<stop offset="0.5447" stop-color="#4A66AE"/>
</linearGradient>
<linearGradient id="paint14_linear_341_460" x1="1662.44" y1="117.415" x2="1622.68" y2="200.426" gradientUnits="userSpaceOnUse">
<stop offset="2.872e-05" stop-color="#E06F52"/>
<stop offset="0.7496" stop-color="#E9A793"/>
</linearGradient>
<linearGradient id="paint15_linear_341_460" x1="1463.44" y1="211.516" x2="1432.05" y2="208.596" gradientUnits="userSpaceOnUse">
<stop offset="0.0251397" stop-color="#EDBE3A" stop-opacity="0.9078"/>
<stop offset="1" stop-color="#E28B36"/>
</linearGradient>
<linearGradient id="paint16_linear_341_460" x1="1490.64" y1="202.844" x2="1471.54" y2="201.068" gradientUnits="userSpaceOnUse">
<stop offset="0.0251397" stop-color="#EDBE3A" stop-opacity="0.9078"/>
<stop offset="1" stop-color="#E28B36"/>
</linearGradient>
<linearGradient id="paint17_linear_341_460" x1="1470.01" y1="240.971" x2="1438.63" y2="238.052" gradientUnits="userSpaceOnUse">
<stop offset="0.0251397" stop-color="#EDBE3A" stop-opacity="0.9078"/>
<stop offset="1" stop-color="#E28B36"/>
</linearGradient>
<linearGradient id="paint18_linear_341_460" x1="1500.13" y1="225.155" x2="1482.02" y2="223.471" gradientUnits="userSpaceOnUse">
<stop offset="0.0251397" stop-color="#EDBE3A" stop-opacity="0.9078"/>
<stop offset="1" stop-color="#E28B36"/>
</linearGradient>
<linearGradient id="paint19_linear_341_460" x1="1470.97" y1="180.97" x2="1443.09" y2="178.377" gradientUnits="userSpaceOnUse">
<stop offset="0.0251397" stop-color="#EDBE3A" stop-opacity="0.9078"/>
<stop offset="1" stop-color="#E28B36"/>
</linearGradient>
<linearGradient id="paint20_linear_341_460" x1="1481.43" y1="170.404" x2="1505.96" y2="352.064" gradientUnits="userSpaceOnUse">
<stop offset="0.2151" stop-color="#9CB3DB"/>
<stop offset="1" stop-color="#CFDAEE"/>
</linearGradient>
<linearGradient id="paint21_linear_341_460" x1="1513.09" y1="301.435" x2="1484.58" y2="149.609" gradientUnits="userSpaceOnUse">
<stop stop-color="#677EBA"/>
<stop offset="0.4781" stop-color="#8DA3D2"/>
</linearGradient>
<linearGradient id="paint22_linear_341_460" x1="1469.62" y1="221.105" x2="1516.88" y2="221.105" gradientUnits="userSpaceOnUse">
<stop offset="0.0251397" stop-color="#EDBE3A" stop-opacity="0.9078"/>
<stop offset="1" stop-color="#E28B36"/>
</linearGradient>
<linearGradient id="paint23_linear_341_460" x1="1544.1" y1="202.322" x2="1565.12" y2="312.63" gradientUnits="userSpaceOnUse">
<stop offset="0.2151" stop-color="#9CB3DB"/>
<stop offset="1" stop-color="#CFDAEE"/>
</linearGradient>
<linearGradient id="paint24_linear_341_460" x1="1745.45" y1="284.205" x2="1743.33" y2="207.428" gradientUnits="userSpaceOnUse">
<stop offset="0.0492588" stop-color="white"/>
<stop offset="1" stop-color="white" stop-opacity="0.6"/>
</linearGradient>
<linearGradient id="paint25_linear_341_460" x1="1615.6" y1="272.45" x2="1615.6" y2="430.716" gradientUnits="userSpaceOnUse">
<stop stop-color="#15123F"/>
<stop offset="1" stop-color="#13113B" stop-opacity="0"/>
</linearGradient>
</defs>
</svg>
