<svg width="21" height="27" viewBox="0 0 21 27" fill="none" xmlns="http://www.w3.org/2000/svg">
<path d="M10.0669 0.727539C4.55286 0.727539 0.0668945 4.9959 0.0668945 10.2424C0.0668945 16.7535 9.01592 26.3121 9.39693 26.7158C9.7548 27.0951 10.3796 27.0944 10.7369 26.7158C11.1179 26.3121 20.0669 16.7535 20.0669 10.2424C20.0668 4.9959 15.5809 0.727539 10.0669 0.727539ZM10.0669 15.0296C7.29265 15.0296 5.0357 12.8821 5.0357 10.2424C5.0357 7.60272 7.2927 5.45525 10.0669 5.45525C12.8411 5.45525 15.098 7.60277 15.098 10.2424C15.098 12.8821 12.8411 15.0296 10.0669 15.0296Z" fill="white"/>
</svg>
