<svg width="33" height="32" viewBox="0 0 33 32" fill="none" xmlns="http://www.w3.org/2000/svg">
<path d="M-6.58821 0.599235C-6.37469 0.415157 -6.07682 0.35386 -5.80821 0.438681L16.7506 7.55749C17.1638 7.68788 17.2663 8.09977 17.1239 8.5C16.9816 8.90014 16.6483 9.13716 16.235 9.00685L-1.8235 3.30818L21.2018 18.1571L30.053 13.3674L16.235 9.00685C15.8218 8.87639 15.6022 8.44628 15.7446 8.04605C15.8869 7.64591 16.3373 7.42702 16.7506 7.55749L32.2648 12.4533C32.5612 12.5469 32.7695 12.801 32.7956 13.1015C32.8218 13.402 32.6611 13.692 32.3858 13.8409L21.8152 19.561L18.6962 29.3141C18.6929 29.3243 18.6892 29.333 18.6851 29.3409C18.6305 29.4915 18.5292 29.6267 18.3874 29.7225C18.2986 29.7824 18.2006 29.8233 18.0992 29.845C17.9005 29.8875 17.6892 29.8559 17.5119 29.7488L10.6447 25.6056L0.558366 31.0636C0.488595 31.1013 0.414535 31.1284 0.338559 31.1446C0.174512 31.1797 0.00180088 31.1643 -0.153737 31.0973C-0.381326 30.9992 -0.545334 30.8021 -0.595712 30.5663L-6.8413 1.32898C-6.89837 1.06183 -6.80175 0.783239 -6.58821 0.599235ZM16.8955 21.0913C17.0118 21.1966 17.0915 21.3341 17.1239 21.4855L18.096 26.0363L20.2259 19.3764L1.99404 7.6189L16.8955 21.0913ZM16.7872 27.4994L15.7882 22.8224L12.2283 24.7487L16.7872 27.4994ZM0.740022 29.2295L15.0187 21.5029L-4.72334 3.65397L0.740022 29.2295Z" fill="#90CCEC"/>
</svg>
