<svg width="40" height="32" viewBox="0 0 40 32" fill="none" xmlns="http://www.w3.org/2000/svg">
<path d="M0.411788 0.599235C0.62531 0.415157 0.923181 0.35386 1.19179 0.438681L23.7506 7.55749C24.1638 7.68788 24.2663 8.09977 24.1239 8.5C23.9816 8.90014 23.6483 9.13716 23.235 9.00685L5.1765 3.30818L28.2018 18.1571L37.053 13.3674L23.235 9.00685C22.8218 8.87639 22.6022 8.44628 22.7446 8.04605C22.8869 7.64591 23.3373 7.42702 23.7506 7.55749L39.2648 12.4533C39.5612 12.5469 39.7695 12.801 39.7956 13.1015C39.8218 13.402 39.6611 13.692 39.3858 13.8409L28.8152 19.561L25.6962 29.3141C25.6929 29.3243 25.6892 29.333 25.6851 29.3409C25.6305 29.4915 25.5292 29.6267 25.3874 29.7225C25.2986 29.7824 25.2006 29.8233 25.0992 29.845C24.9005 29.8875 24.6892 29.8559 24.5119 29.7488L17.6447 25.6056L7.55837 31.0636C7.48859 31.1013 7.41453 31.1284 7.33856 31.1446C7.17451 31.1797 7.0018 31.1643 6.84626 31.0973C6.61867 30.9992 6.45467 30.8021 6.40429 30.5663L0.158703 1.32898C0.101635 1.06183 0.198251 0.783239 0.411788 0.599235ZM23.8955 21.0913C24.0118 21.1966 24.0915 21.3341 24.1239 21.4855L25.096 26.0363L27.2259 19.3764L8.99404 7.6189L23.8955 21.0913ZM23.7872 27.4994L22.7882 22.8224L19.2283 24.7487L23.7872 27.4994ZM7.74002 29.2295L22.0187 21.5029L2.27666 3.65397L7.74002 29.2295Z" fill="#90CCEC"/>
</svg>
